<svg width="173" height="167" viewBox="0 0 173 167" fill="none" xmlns="http://www.w3.org/2000/svg">
<ellipse cx="86.5" cy="83.5" rx="86.5" ry="83.5" fill="white"/>
<path d="M85.392 74.088C85.136 74.5147 84.752 74.8133 84.24 74.984C83.8133 75.0693 83.3867 75.24 82.96 75.496C82.5333 75.752 82.1067 76.0933 81.68 76.52C81.2533 76.9467 80.8267 77.288 80.4 77.544C81.5947 82.152 82.5333 86.1627 83.216 89.576C83.8987 92.9893 84.3253 95.5493 84.496 97.256C84.6667 98.9627 84.7947 100.84 84.88 102.888C84.9653 104.936 85.008 106.813 85.008 108.52C85.008 109.8 84.9227 110.824 84.752 111.592C84.6667 112.445 84.496 113.256 84.24 114.024C83.216 112.744 82.3627 111.379 81.68 109.928C81.0827 108.477 80.4427 107.027 79.76 105.576C78.3093 101.224 76.9013 96.6587 75.536 91.88C74.256 87.1013 72.976 82.2373 71.696 77.288C69.3067 77.2027 66.7467 77.16 64.016 77.16C61.2853 77.16 58.5547 77.16 55.824 77.16C53.0933 77.16 50.4907 77.2027 48.016 77.288C45.6267 77.288 43.536 77.3307 41.744 77.416C41.5733 77.928 41.4027 78.5253 41.232 79.208C40.72 80.3173 40.2933 81.5547 39.952 82.92C39.6107 84.2 39.312 85.608 39.056 87.144C38.8 88.5947 38.5013 90.1307 38.16 91.752C37.8187 93.3733 37.392 94.9947 36.88 96.616C37.9893 96.616 39.056 96.2747 40.08 95.592C41.1893 94.824 42.2987 94.44 43.408 94.44C42.64 95.208 41.9573 96.0613 41.36 97C40.848 97.9387 40.3787 99.176 39.952 100.712C39.8667 101.139 39.6107 101.565 39.184 101.992C38.7573 102.504 38.4587 102.888 38.288 103.144C38.1173 103.485 37.9467 103.827 37.776 104.168C37.6053 104.595 37.392 104.893 37.136 105.064C36.5387 105.405 36.0267 105.576 35.6 105.576C35.1733 105.661 34.8747 105.576 34.704 105.32C34.0213 104.296 33.552 103.187 33.296 101.992C33.1253 100.883 32.9547 99.688 32.784 98.408C32.784 96.104 33.0827 93.1173 33.68 89.448C34.2773 85.7787 35.0453 81.8533 35.984 77.672C35.3013 77.5013 34.6187 77.2027 33.936 76.776C33.2533 76.264 32.656 75.9227 32.144 75.752C31.2053 75.3253 30.4373 75.112 29.84 75.112C29.2427 75.0267 28.6027 74.6853 27.92 74.088L35.728 72.04C36.1547 72.04 36.7093 71.9547 37.392 71.784C38.416 67.7733 39.44 63.9333 40.464 60.264C41.488 56.5947 42.4693 53.48 43.408 50.92C44.0907 48.9573 44.9013 46.696 45.84 44.136C46.864 41.576 48.016 39.144 49.296 36.84C50.6613 34.4507 52.1547 32.4027 53.776 30.696C55.4827 28.9893 57.3173 27.9227 59.28 27.496C59.8773 27.3253 60.4747 27.1973 61.072 27.112C61.6693 27.0267 62.3093 26.984 62.992 26.984C63.6747 26.984 64.1867 27.3253 64.528 28.008C64.8693 28.6053 65.3813 29.3733 66.064 30.312C66.4907 31.08 66.8747 31.7627 67.216 32.36C67.6427 32.872 68.0693 33.9813 68.496 35.688C70.544 41.9173 72.464 48.1893 74.256 54.504C76.048 60.7333 77.6267 66.6213 78.992 72.168L86.8 73.832L85.392 74.088ZM59.28 33C57.8293 34.9627 56.464 37.1387 55.184 39.528C53.904 41.832 52.624 44.52 51.344 47.592C50.064 50.5787 48.784 54.0347 47.504 57.96C46.224 61.8 44.9013 66.152 43.536 71.016C47.9733 70.504 52.4107 70.2053 56.848 70.12C61.2853 70.0347 65.68 70.2053 70.032 70.632C68.24 63.72 66.4907 57.0213 64.784 50.536C63.0773 43.9653 61.2427 38.12 59.28 33Z" fill="#1C483B"/>
<path d="M80.1735 91.2631C80.8996 93.2691 81.9957 95.4194 83.4616 97.7142C84.9792 99.9013 86.2609 102.439 87.3066 105.328C88.788 109.42 90.3502 113.484 91.9932 117.521C93.6362 121.558 95.7234 125.444 98.2549 129.179C99.6827 129.864 100.652 130.661 101.162 131.569C101.701 132.557 102.159 133.572 102.537 134.615C102.769 135.257 102.85 136.357 102.778 137.913C102.787 139.442 102.761 140.623 102.699 141.455C97.974 137.927 93.8967 133.682 90.4675 128.721C87.09 123.653 84.2086 118.325 81.8231 112.738C79.4893 107.044 77.6144 101.238 76.1982 95.3209C74.7531 89.3237 73.626 83.5787 72.8171 78.0859C73.476 78.4023 74.0315 78.9341 74.4835 79.6815C74.9065 80.3486 75.3585 81.0959 75.8396 81.9235C76.1464 82.2697 76.4854 82.8302 76.8567 83.6051C77.3087 84.3524 77.709 85.2075 78.0576 86.1704C78.4579 87.0255 78.8323 87.9344 79.1809 88.8973C79.5812 89.7524 79.912 90.541 80.1735 91.2631ZM119.16 76.7688C119.173 77.3052 119.05 77.8428 118.791 78.3815C118.584 78.8125 118.282 79.2309 117.885 79.6367C117.458 79.9622 117.017 80.2476 116.561 80.4929C116.187 80.7107 115.918 80.8471 115.757 80.9021C114.707 81.2598 113.816 82.0587 113.086 83.299C112.407 84.4315 111.731 85.6981 111.059 87.0988L102.299 109.145C104.557 109.367 107.343 109.545 110.658 109.678C113.973 109.811 117.481 110.103 121.183 110.554C124.886 111.006 128.58 111.686 132.266 112.594C135.952 113.501 139.28 114.801 142.252 116.493C144.164 117.014 145.424 117.486 146.031 117.91C146.719 118.306 147.136 118.705 147.281 119.107C147.426 119.508 147.517 119.883 147.552 120.231C147.588 120.579 147.935 120.912 148.594 121.228C149.017 121.895 149.139 122.485 148.961 122.996C148.864 123.479 148.9 123.828 149.068 124.041C149.265 124.335 149.132 124.47 148.67 124.447C148.289 124.396 147.824 124.239 147.275 123.976C143.76 122.289 140.134 121.045 136.397 120.245C132.659 119.445 128.792 118.914 124.796 118.653C120.851 118.284 116.722 118.158 112.409 118.274C108.177 118.364 103.809 118.454 99.3055 118.546C97.3024 118.778 95.8956 118.401 95.085 117.415C94.5005 116.803 94.1987 116.094 94.1796 115.29C94.2122 114.377 94.248 113.599 94.287 112.955C94.4458 111.639 94.4026 110.392 94.1575 109.213C93.9124 108.035 93.9355 106.72 94.2268 105.269C95.52 102.575 96.752 99.5872 97.9227 96.3043C99.1451 92.9137 100.495 89.7501 101.973 86.8134C103.531 83.8492 105.37 81.285 107.49 79.1209C109.691 76.9293 112.413 75.5515 115.657 74.9875C116.979 74.6276 117.958 74.6998 118.594 75.2041C119.311 75.681 119.5 76.2025 119.16 76.7688Z" fill="#FBC42F"/>
</svg>
